<?xml version="1.0" encoding="utf-8"?>
<!-- Generator: Adobe Illustrator 16.0.0, SVG Export Plug-In . SVG Version: 6.00 Build 0)  -->
<!DOCTYPE svg PUBLIC "-//W3C//DTD SVG 1.1//EN" "http://www.w3.org/Graphics/SVG/1.1/DTD/svg11.dtd">
<svg version="1.1" id="Layer_1" xmlns="http://www.w3.org/2000/svg" xmlns:xlink="http://www.w3.org/1999/xlink" x="0px" y="0px"
	 width="454.959px" height="72.734px" viewBox="0 0 454.959 72.734" enable-background="new 0 0 454.959 72.734"
	 xml:space="preserve">
<polygon fill-rule="evenodd" clip-rule="evenodd" fill="#1A171F" points="449.782,47.818 449.782,27.33 440.563,27.33 
	440.563,30.661 431.347,30.661 431.347,39.877 427.269,39.877 427.269,23.998 419.149,23.998 419.149,33.956 415.815,33.956 
	415.815,38.778 412.128,38.778 412.128,50.227 406.953,50.227 406.953,27.33 404.754,26.229 404.722,20.912 401.223,19.204 
	400.862,10.983 400.677,19.213 397.344,21.054 397.344,26.229 395.146,27.701 395.146,45.405 389.225,45.405 389.225,53.522 
	383.303,53.522 383.303,37.68 375.186,37.68 375.186,42.463 369.653,42.463 369.653,53.522 364.053,53.522 364.055,53.104 
	364.112,53.104 364.112,53.096 364.116,53.076 364.125,53.025 364.129,53.004 364.13,52.996 364.122,52.764 364.059,52.764 
	364.062,52.075 364.1,52.075 364.104,52.034 364.104,51.968 364.109,51.968 364.115,51.923 364.115,51.796 364.063,51.796 
	364.066,51.466 363.776,51.462 363.493,51.433 363.493,51.001 363.405,50.991 363.405,50.786 363.348,50.78 363.341,50.729 
	363.205,50.394 362.988,50.106 362.945,50.071 362.672,49.86 362.353,49.731 362.313,49.72 362.261,49.71 362.261,49.593 
	362.268,49.593 362.297,49.581 362.307,49.567 362.293,49.554 362.244,49.528 362.191,49.509 362.168,49.499 362.121,49.485 
	362.092,49.479 362.084,49.479 362.084,49.179 362.082,49.175 362.072,49.171 362.057,49.167 362.039,49.163 362.021,49.163 
	362.021,48.526 362.02,48.524 362.018,48.522 362.012,48.522 362.005,48.522 361.998,48.519 361.988,48.519 361.98,48.519 
	361.973,48.522 361.965,48.522 361.96,48.522 361.956,48.522 361.955,48.526 361.955,49.163 361.943,49.163 361.924,49.167 
	361.907,49.167 361.896,49.173 361.892,49.177 361.893,49.474 361.889,49.474 361.849,49.479 361.824,49.485 361.772,49.499 
	361.727,49.519 361.702,49.528 361.652,49.554 361.645,49.567 361.66,49.581 361.696,49.593 361.715,49.595 361.715,49.712 
	361.689,49.716 361.386,49.831 361.33,49.854 361.045,50.063 360.824,50.345 360.685,50.677 360.674,50.716 360.666,50.778 
	360.574,50.792 360.574,51.413 360.182,51.458 360.157,51.435 359.85,51.431 359.846,51.763 359.817,51.763 359.785,51.888 
	359.842,51.929 359.831,52.793 359.738,52.961 359.757,52.969 359.803,52.99 359.828,53.002 359.82,53.522 355.576,53.522 
	355.576,33.956 342.671,29.526 342.671,57.954 339.338,57.954 339.338,39.521 330.864,39.521 330.864,57.954 327.887,57.954 
	327.887,52.813 324.943,52.813 324.943,50.227 317.179,50.227 317.179,52.813 314.59,52.813 314.59,58.345 310.158,58.345 
	310.158,50.972 306.471,50.972 306.471,48.384 301.685,48.384 301.685,40.23 293.53,40.23 293.53,49.093 291.687,49.093 291.687,0 
	277.408,0 277.408,48.384 272.621,48.384 272.621,45.052 263.368,45.052 263.368,55.401 258.705,55.401 258.559,35.244 
	258.549,35.235 258.499,35.226 258.412,35.218 258.293,35.214 258.25,35.213 258.247,34.991 258.182,34.96 257.992,34.933 
	257.688,34.909 257.289,34.893 257.055,34.89 257.055,34.756 257.26,34.751 257.783,34.728 258.213,34.695 258.518,34.658 
	258.678,34.617 258.68,34.576 258.678,34.468 258.517,34.428 258.203,34.393 257.755,34.367 257.205,34.35 257.053,34.348 
	257.053,34.28 257.127,34.272 257.234,34.256 257.281,34.239 257.281,34.173 257.28,33.919 257.279,33.656 257.275,33.394 
	257.274,33.175 257.273,32.958 257.272,32.907 257.254,32.887 257.171,32.868 257.028,32.852 257.02,32.851 257.02,32.843 
	257.038,32.842 257.184,32.836 257.186,32.836 257.415,32.82 257.541,32.81 257.543,32.81 257.548,32.81 257.723,32.791 
	257.82,32.779 257.822,32.779 257.826,32.778 257.939,32.756 258.002,32.742 258.003,32.742 258.006,32.742 258.016,32.737 
	258.271,32.614 258.348,32.592 258.355,32.57 258.363,32.546 258.363,32.448 258.365,32.447 258.361,32.407 258.361,32.401 
	258.041,32.237 257.921,32.2 257.693,32.168 257.369,32.142 257.294,32.14 257.203,32.093 257.102,32.025 257.009,31.947 
	256.927,31.858 256.854,31.762 256.793,31.658 256.742,31.548 256.705,31.433 256.678,31.425 256.628,31.417 256.615,31.416 
	256.595,28.062 256.59,28.052 256.566,28.046 256.527,28.038 256.512,28.037 256.498,25.501 256.492,25.494 256.477,25.487 
	256.448,25.48 256.416,25.478 256.402,23.355 256.396,23.35 256.383,23.347 256.361,23.343 256.342,23.341 256.333,21.699 
	256.33,21.697 256.324,21.695 256.315,21.693 256.305,21.69 256.293,21.69 256.28,21.69 256.269,21.693 256.258,21.694 
	256.25,21.695 256.242,21.698 256.238,21.7 256.238,21.703 256.248,23.343 256.229,23.345 256.21,23.349 256.195,23.354 
	256.188,23.359 256.188,23.364 256.199,25.48 256.18,25.483 256.148,25.489 256.127,25.496 256.118,25.504 256.133,28.042 
	256.096,28.048 256.064,28.056 256.051,28.064 256.071,31.421 256.047,31.425 256.002,31.432 255.98,31.441 255.943,31.557 
	255.895,31.669 255.834,31.774 255.762,31.873 255.68,31.963 255.588,32.043 255.487,32.111 255.403,32.158 255.266,32.167 
	254.958,32.198 254.749,32.235 254.65,32.276 254.334,32.446 254.349,32.477 254.35,32.578 254.352,32.601 254.354,32.623 
	254.422,32.644 254.693,32.768 254.694,32.769 254.695,32.769 254.805,32.79 254.865,32.802 254.867,32.802 254.869,32.802 
	255.041,32.818 255.135,32.829 255.142,32.829 255.363,32.842 255.486,32.849 255.489,32.849 255.494,32.849 255.617,32.853 
	255.617,32.863 255.51,32.876 255.404,32.896 255.362,32.916 255.363,32.966 255.364,33.184 255.365,33.402 255.366,33.663 
	255.367,33.926 255.369,34.18 255.369,34.246 255.393,34.263 255.479,34.279 255.623,34.292 255.629,34.292 255.629,34.358 
	255.357,34.365 254.824,34.392 254.398,34.426 254.11,34.465 253.976,34.508 253.976,34.615 254.002,34.656 254.186,34.693 
	254.51,34.726 254.953,34.75 255.486,34.766 255.632,34.767 255.633,34.9 255.386,34.909 255.002,34.93 254.715,34.958 
	254.544,34.989 254.498,35.02 254.5,35.238 254.441,35.239 254.318,35.246 254.223,35.254 254.16,35.262 254.138,35.272 
	254.233,55.401 248.581,55.401 248.581,41.364 244.504,41.364 244.504,35.446 233.796,35.446 233.796,45.052 229.01,45.052 
	229.01,66.017 227.94,66.017 228.046,28.163 227.977,28.05 227.805,27.944 227.536,27.853 227.195,27.783 226.802,27.738 
	226.383,27.723 217.389,27.727 216.98,27.741 216.612,27.787 216.314,27.857 216.104,27.948 215.996,28.055 215.684,57.06 
	214.77,57.047 214.236,57.056 214.236,51.373 209.041,51.373 209.041,54.389 207.579,54.389 207.579,46.56 206.666,46.542 
	206.666,41.32 206.376,41.173 206.376,39.682 205.225,39.682 202.818,34.474 202.612,25.222 202.403,34.501 199.804,39.467 
	198.741,39.523 198.741,41.025 198.43,41.32 198.43,46.56 197.233,46.562 197.23,47.114 194.633,46.235 194.633,57.047 
	192.588,57.048 192.477,57.051 192.106,57.009 192.019,43.743 191.894,43.743 191.884,42.103 191.632,42.098 190.516,42.099 
	190.448,30.636 190.438,28.84 190.435,28.445 190.159,28.404 183.422,28.461 183.131,28.508 183.131,28.899 183.138,30.689 
	183.166,41.917 183.026,41.914 181.733,41.894 180.224,41.882 179.733,41.88 179.792,34.198 178.729,34.066 168.593,34.122 
	168.665,15.139 168.558,14.926 168.56,14.464 168.562,13.809 168.563,13.116 167.565,11.012 167.287,10.939 160.071,11.069 
	159.495,11.41 159.259,11.801 159.253,12.522 159.247,13.209 159.243,13.718 159.133,13.89 159.129,14.439 158.834,50.895 
	157.434,47.862 157.396,41.202 157.184,37.33 157.136,28.459 156.753,28.383 156.749,28.383 156.746,27.938 156.327,27.846 
	156.281,27.846 156.28,27.396 155.859,27.303 155.819,27.303 155.816,26.9 155.396,26.807 155.358,26.807 155.357,26.325 
	154.936,26.23 153.265,26.229 152.83,26.324 152.83,26.806 152.823,26.806 152.388,26.899 152.389,27.301 152.377,27.301 
	151.941,27.395 151.943,27.844 151.929,27.844 151.492,27.936 151.492,28.394 151.44,28.394 151.049,28.475 151.055,37.34 
	150.858,41.212 150.861,50.43 150.362,52.18 150.096,52.188 150.096,52.243 149.541,52.26 149.541,52.318 148.918,52.343 
	148.918,52.406 148.524,52.416 148.486,28.866 148.474,20.665 144.414,19.711 144.301,21.322 144.359,42.073 142.218,42.112 
	142.211,41.481 142.221,41.476 142.205,39.999 142.282,39.998 142.393,39.991 142.489,39.979 142.566,39.963 142.619,39.945 
	142.643,39.926 142.549,30.757 142.547,30.753 142.541,30.729 142.506,30.702 142.441,30.681 142.355,30.663 142.252,30.653 
	142.138,30.649 142.105,30.65 142.087,30.65 142.06,30.651 138.819,23.488 135.465,23.516 132.301,30.714 132.273,30.713 
	132.256,30.712 132.25,30.712 132.136,30.715 132.03,30.728 131.94,30.744 131.871,30.767 131.829,30.793 131.816,30.819 
	131.795,39.97 131.811,39.989 131.856,40.008 131.929,40.023 132.021,40.034 132.129,40.042 132.195,40.044 132.192,41.514 
	132.207,41.53 132.235,41.54 132.205,58.29 131.447,58.302 131.438,66.017 130.84,66.017 130.846,63.687 130.577,63.687 
	130.576,51.013 130.846,51.013 130.846,35.551 130.292,35.448 130.292,30.22 129.668,30.063 129.627,30.025 129.572,29.988 
	129.504,29.954 129.42,29.922 129.326,29.89 129.221,29.859 129.104,29.833 128.977,29.808 128.84,29.788 128.697,29.769 
	128.548,29.755 128.393,29.743 127.742,29.579 127.098,29.74 126.943,29.751 126.794,29.764 126.652,29.781 126.518,29.802 
	126.392,29.825 126.275,29.852 126.172,29.881 126.079,29.911 125.998,29.944 125.932,29.979 125.878,30.017 125.839,30.053 
	125.224,30.206 125.223,35.438 124.67,35.539 124.664,51.013 124.918,51.013 124.914,63.672 123.686,63.669 123.704,53.306 
	120.727,53.203 120.303,53.238 120.301,53.848 120.279,53.84 119.494,53.809 118.93,53.845 118.933,51.416 118.543,51.412 
	118.545,48.423 118.039,48.41 118.002,48.407 117.953,48.404 117.894,48.401 117.822,48.397 117.744,48.396 117.656,48.394 
	117.56,48.393 117.46,48.39 117.352,48.388 117.241,48.386 117.126,48.385 117.01,48.384 116.486,48.371 116.102,48.384 
	116.1,46.818 115.333,46.742 114.396,46.802 114.396,49.471 114.042,49.49 114.045,52.205 113.67,52.221 113.672,53.404 
	113.57,53.404 113.415,53.404 113.275,53.408 113.243,53.409 113.245,52.354 112.646,52.317 112.647,51.318 112.524,51.311 
	111.875,51.349 111.87,46.407 108.83,46.605 108.836,52.32 108.543,52.336 108.539,66.017 108.504,66.017 108.506,59.916 
	107.11,59.91 107.085,52.567 106.388,48.545 106.35,35.283 105.999,34.168 105.967,21.911 105.66,21.149 105.349,21.093 
	105.348,20.605 105.347,20.494 105.129,20.453 105.128,19.973 105.128,19.863 104.809,19.802 104.807,18.979 104.807,18.877 
	104.528,18.821 101.496,18.828 101.219,18.883 101.219,18.984 101.217,19.808 100.898,19.872 100.898,19.981 100.896,20.46 
	100.693,20.498 100.693,20.608 100.692,21.097 100.38,21.155 100.069,21.916 100.039,34.17 99.69,35.285 99.659,46.69 
	99.597,46.684 99.597,46.684 99.597,46.461 99.527,46.454 98.618,46.443 98.544,46.448 98.519,46.521 98.519,46.674 98.387,46.683 
	98.36,46.766 98.36,46.893 98.253,46.9 98.225,46.99 98.225,47.116 98.103,47.126 98.07,47.224 98.07,47.435 97.95,47.44 
	97.916,47.548 97.92,53.816 97.845,54.511 97.783,36.658 97.78,35.567 97.77,32.976 97.746,32.976 97.743,31.982 97.735,30.056 
	94.965,30.044 94.903,29.831 94.553,29.829 94.554,30.042 92.147,30.033 92.006,29.818 91.647,29.816 91.648,30.031 89.019,30.02 
	89.038,31.956 89.046,32.951 88.821,32.951 88.846,35.559 88.857,36.653 88.982,49.45 85.714,49.383 85.538,49.422 85.538,50.347 
	85.465,50.344 83.545,50.68 83.545,53.283 82.239,53.059 81.219,53.074 81.195,47.26 81.185,47.244 81.18,34.711 80.417,33.445 
	80.396,33.445 80.396,32.438 80.292,32.259 71.361,32.558 71.361,56.179 70.407,56.203 70.409,56.56 69.048,55.735 68.99,15.533 
	68.707,15.237 68.034,14.964 67.008,14.733 65.697,14.565 64.195,14.474 63.485,14.471 63.484,11.091 63.17,8.277 61.63,8.344 
	60.221,8.509 59.05,8.759 58.198,9.074 57.717,9.428 57.631,9.797 57.625,15.694 57.576,61.696 57.288,61.73 56.918,61.805 
	56.864,53.52 56.72,51.985 56.55,50.612 56.368,49.579 56.145,48.893 55.93,48.412 54.574,48.281 53.976,48.305 53.765,48.779 
	53.549,49.461 53.379,50.493 53.242,51.72 53.18,37.832 53.158,36.836 53.156,36.724 53.149,36.571 53.106,35.618 53.031,34.516 
	52.931,33.418 52.806,32.324 52.656,31.234 52.481,30.151 52.283,29.073 52.058,28.002 51.811,26.937 51.538,25.88 51.305,25.054 
	51.323,24.988 51.394,24.724 51.428,24.596 51.434,24.567 51.438,24.539 51.239,24.538 51.225,24.284 51.204,23.993 51.181,23.703 
	51.152,23.414 51.12,23.124 51.084,22.836 51.044,22.547 51,22.26 50.951,21.974 50.9,21.688 50.844,21.402 50.784,21.119 
	44.509,21.086 44.449,21.369 44.393,21.654 44.341,21.939 44.292,22.226 44.249,22.514 44.208,22.8 44.171,23.09 44.139,23.379 
	44.11,23.669 44.086,23.959 44.065,24.249 44.051,24.505 43.861,24.504 43.896,25.326 43.751,25.846 43.611,26.374 43.478,26.901 
	43.35,27.434 43.228,27.967 43.113,28.5 43.003,29.037 42.9,29.576 42.802,30.116 42.712,30.657 42.627,31.2 42.476,32.29 
	42.35,33.386 42.249,34.485 42.173,35.59 42.123,36.697 42.116,36.99 42.098,37.808 42.036,50.704 40.189,50.633 40.32,16.087 
	40.337,11.68 27.259,11.514 27.251,12.059 27.281,16.393 27.516,50.471 27.076,50.47 27.077,48.638 27.069,48.63 27.052,48.624 
	27.025,48.618 26.989,48.612 26.321,48.596 26.321,46.895 26.316,46.875 26.295,46.854 26.26,46.835 26.208,46.814 26.14,46.793 
	25.426,46.758 25.424,45.428 25.421,45.389 25.404,45.351 25.373,45.311 25.328,45.271 25.267,45.229 22.628,45.042 22.628,44.895 
	22.63,44.888 22.631,44.845 22.631,44.767 22.632,44.661 22.631,44.533 22.631,44.394 22.63,44.252 22.629,44.114 22.627,43.992 
	22.626,43.895 22.625,43.827 22.624,43.794 22.543,43.794 22.488,43.284 20.547,43.279 20.56,45.034 17.982,45.215 17.965,45.255 
	17.959,45.295 17.976,46.739 17.16,46.78 17.137,46.802 17.126,46.821 17.126,46.842 17.146,48.586 16.364,48.604 16.331,48.61 
	16.308,48.618 16.297,48.623 16.296,48.63 16.32,50.471 15.766,50.473 15.648,50.473 15.603,50.473 15.565,50.474 15.536,50.474 
	15.516,50.475 15.505,50.475 15.503,50.475 15.533,52.555 14.842,52.575 14.998,63.229 14.051,63.396 14.093,66.017 12.905,66.017 
	12.905,31.387 0,34.307 0,72.734 11.905,72.734 12.905,72.734 229.01,72.734 239.029,72.734 454.959,72.734 454.959,47.818 "/>
</svg>
